<svg width="255" height="40" viewBox="0 0 255 40" fill="none" xmlns="http://www.w3.org/2000/svg">
<g clip-path="url(#clip0_34_2695)">
<path d="M13.3821 25H15.3584V21.3139H17.4464C19.966 21.3139 21.3189 19.8011 21.3189 17.7024C21.3189 15.6197 19.9819 14.0909 17.4731 14.0909H13.3821V25ZM15.3584 19.6893V15.7422H17.1694C18.6503 15.7422 19.3054 16.5412 19.3054 17.7024C19.3054 18.8636 18.6503 19.6893 17.1801 19.6893H15.3584ZM26.4019 25.1598C28.799 25.1598 30.3224 23.4712 30.3224 20.9411C30.3224 18.4055 28.799 16.7116 26.4019 16.7116C24.0049 16.7116 22.4815 18.4055 22.4815 20.9411C22.4815 23.4712 24.0049 25.1598 26.4019 25.1598ZM26.4126 23.6151C25.0862 23.6151 24.4364 22.4325 24.4364 20.9357C24.4364 19.4389 25.0862 18.2404 26.4126 18.2404C27.7176 18.2404 28.3675 19.4389 28.3675 20.9357C28.3675 22.4325 27.7176 23.6151 26.4126 23.6151ZM31.959 25H33.8873V20.19C33.8873 19.1513 34.6703 18.4162 35.7303 18.4162C36.0553 18.4162 36.4601 18.4748 36.6252 18.5281V16.7543C36.4494 16.7223 36.1458 16.701 35.9328 16.701C34.9953 16.701 34.2122 17.2337 33.9139 18.1818H33.8287V16.8182H31.959V25ZM42.4313 16.8182H40.8173V14.858H38.8891V16.8182H37.7278V18.3097H38.8891V22.8587C38.8784 24.3981 39.997 25.1545 41.4459 25.1119C41.9945 25.0959 42.3727 24.9893 42.5805 24.9201L42.2555 23.4126C42.149 23.4393 41.9306 23.4872 41.6909 23.4872C41.2062 23.4872 40.8173 23.3168 40.8173 22.5391V18.3097H42.4313V16.8182ZM47.525 25.1598C49.922 25.1598 51.4454 23.4712 51.4454 20.9411C51.4454 18.4055 49.922 16.7116 47.525 16.7116C45.128 16.7116 43.6045 18.4055 43.6045 20.9411C43.6045 23.4712 45.128 25.1598 47.525 25.1598ZM47.5356 23.6151C46.2093 23.6151 45.5594 22.4325 45.5594 20.9357C45.5594 19.4389 46.2093 18.2404 47.5356 18.2404C48.8407 18.2404 49.4905 19.4389 49.4905 20.9357C49.4905 22.4325 48.8407 23.6151 47.5356 23.6151ZM57.2263 16.8182H55.527V16.1737C55.527 15.5344 55.7934 15.1776 56.5125 15.1776C56.8161 15.1776 57.0718 15.2468 57.2316 15.2947L57.6204 13.8033C57.3701 13.718 56.8214 13.5795 56.1556 13.5795C54.7334 13.5795 53.5988 14.3945 53.5988 16.0458V16.8182H52.3896V18.3097H53.5988V25H55.527V18.3097H57.2263V16.8182ZM60.6646 14.0909H58.7364V25H60.6646V14.0909ZM62.6475 25H64.5758V16.8182H62.6475V25ZM63.617 15.657C64.2295 15.657 64.7302 15.1882 64.7302 14.6129C64.7302 14.0323 64.2295 13.5636 63.617 13.5636C62.9991 13.5636 62.4984 14.0323 62.4984 14.6129C62.4984 15.1882 62.9991 15.657 63.617 15.657ZM70.1275 25.1598C72.5245 25.1598 74.048 23.4712 74.048 20.9411C74.048 18.4055 72.5245 16.7116 70.1275 16.7116C67.7305 16.7116 66.2071 18.4055 66.2071 20.9411C66.2071 23.4712 67.7305 25.1598 70.1275 25.1598ZM70.1382 23.6151C68.8118 23.6151 68.162 22.4325 68.162 20.9357C68.162 19.4389 68.8118 18.2404 70.1382 18.2404C71.4432 18.2404 72.0931 19.4389 72.0931 20.9357C72.0931 22.4325 71.4432 23.6151 70.1382 23.6151Z" fill="#344563"/>
<path d="M109.85 25L110.751 22.31H114.852L115.758 25H117.867L114.021 14.0909H111.582L107.741 25H109.85ZM111.283 20.7227L112.759 16.3281H112.844L114.32 20.7227H111.283ZM119.304 25H121.2V23.7109H121.312C121.616 24.3075 122.25 25.1438 123.656 25.1438C125.584 25.1438 127.028 23.6151 127.028 20.9197C127.028 18.1925 125.542 16.7116 123.651 16.7116C122.207 16.7116 121.605 17.5799 121.312 18.1712H121.232V14.0909H119.304V25ZM121.195 20.9091C121.195 19.3217 121.877 18.2937 123.118 18.2937C124.402 18.2937 125.062 19.3857 125.062 20.9091C125.062 22.4432 124.391 23.5618 123.118 23.5618C121.887 23.5618 121.195 22.4964 121.195 20.9091ZM132.236 25.1598C134.633 25.1598 136.156 23.4712 136.156 20.9411C136.156 18.4055 134.633 16.7116 132.236 16.7116C129.839 16.7116 128.315 18.4055 128.315 20.9411C128.315 23.4712 129.839 25.1598 132.236 25.1598ZM132.247 23.6151C130.92 23.6151 130.27 22.4325 130.27 20.9357C130.27 19.4389 130.92 18.2404 132.247 18.2404C133.552 18.2404 134.201 19.4389 134.201 20.9357C134.201 22.4325 133.552 23.6151 132.247 23.6151ZM143.008 21.5589C143.008 22.8054 142.118 23.4233 141.266 23.4233C140.339 23.4233 139.721 22.7681 139.721 21.7294V16.8182H137.793V22.0277C137.793 23.9933 138.912 25.1065 140.52 25.1065C141.745 25.1065 142.608 24.462 142.981 23.5458H143.066V25H144.936V16.8182H143.008V21.5589ZM151.005 16.8182H149.391V14.858H147.462V16.8182H146.301V18.3097H147.462V22.8587C147.452 24.3981 148.57 25.1545 150.019 25.1119C150.568 25.0959 150.946 24.9893 151.154 24.9201L150.829 23.4126C150.722 23.4393 150.504 23.4872 150.264 23.4872C149.779 23.4872 149.391 23.3168 149.391 22.5391V18.3097H151.005V16.8182Z" fill="#344563"/>
<path d="M194.873 17.7717C194.538 15.348 192.673 13.9418 190.255 13.9418C187.405 13.9418 185.258 16.0192 185.258 19.5455C185.258 23.0664 187.379 25.1491 190.255 25.1491C192.849 25.1491 194.57 23.4712 194.873 21.3885L192.881 21.3778C192.631 22.6562 191.587 23.3754 190.282 23.3754C188.513 23.3754 187.245 22.049 187.245 19.5455C187.245 17.0845 188.502 15.7156 190.287 15.7156C191.613 15.7156 192.652 16.4666 192.881 17.7717H194.873ZM200.167 25.1598C202.564 25.1598 204.087 23.4712 204.087 20.9411C204.087 18.4055 202.564 16.7116 200.167 16.7116C197.77 16.7116 196.246 18.4055 196.246 20.9411C196.246 23.4712 197.77 25.1598 200.167 25.1598ZM200.177 23.6151C198.851 23.6151 198.201 22.4325 198.201 20.9357C198.201 19.4389 198.851 18.2404 200.177 18.2404C201.482 18.2404 202.132 19.4389 202.132 20.9357C202.132 22.4325 201.482 23.6151 200.177 23.6151ZM207.652 20.206C207.652 19.0234 208.366 18.3416 209.383 18.3416C210.379 18.3416 210.976 18.9968 210.976 20.0888V25H212.904V19.7905C212.909 17.8303 211.791 16.7116 210.102 16.7116C208.877 16.7116 208.035 17.2976 207.663 18.2085H207.567V16.8182H205.724V25H207.652V20.206ZM218.95 16.8182H217.336V14.858H215.408V16.8182H214.246V18.3097H215.408V22.8587C215.397 24.3981 216.516 25.1545 217.964 25.1119C218.513 25.0959 218.891 24.9893 219.099 24.9201L218.774 23.4126C218.668 23.4393 218.449 23.4872 218.209 23.4872C217.725 23.4872 217.336 23.3168 217.336 22.5391V18.3097H218.95V16.8182ZM222.917 25.1651C224.201 25.1651 224.968 24.5632 225.319 23.8761H225.383V25H227.237V19.5241C227.237 17.3615 225.474 16.7116 223.913 16.7116C222.193 16.7116 220.871 17.4787 220.445 18.9702L222.246 19.2259C222.438 18.6665 222.981 18.1871 223.924 18.1871C224.819 18.1871 225.309 18.6452 225.309 19.4496V19.4815C225.309 20.0355 224.728 20.0621 223.284 20.2166C221.697 20.3871 220.179 20.8612 220.179 22.7042C220.179 24.3129 221.356 25.1651 222.917 25.1651ZM223.418 23.7482C222.613 23.7482 222.038 23.3807 222.038 22.6722C222.038 21.9318 222.683 21.6229 223.545 21.5004C224.052 21.4311 225.064 21.3033 225.314 21.1009V22.065C225.314 22.9759 224.579 23.7482 223.418 23.7482ZM232.745 25.1598C234.801 25.1598 236.111 23.94 236.25 22.2035H234.407C234.242 23.0824 233.608 23.5884 232.761 23.5884C231.557 23.5884 230.779 22.5817 230.779 20.9091C230.779 19.2578 231.573 18.267 232.761 18.267C233.688 18.267 234.258 18.8636 234.407 19.652H236.25C236.117 17.8782 234.732 16.7116 232.734 16.7116C230.337 16.7116 228.824 18.4428 228.824 20.9411C228.824 23.418 230.3 25.1598 232.745 25.1598ZM241.919 16.8182H240.305V14.858H238.376V16.8182H237.215V18.3097H238.376V22.8587C238.366 24.3981 239.484 25.1545 240.933 25.1119C241.482 25.0959 241.86 24.9893 242.068 24.9201L241.743 23.4126C241.636 23.4393 241.418 23.4872 241.178 23.4872C240.693 23.4872 240.305 23.3168 240.305 22.5391V18.3097H241.919V16.8182Z" fill="#344563"/>
</g>
<defs>
<clipPath id="clip0_34_2695">
<rect width="255" height="40" fill="white"/>
</clipPath>
</defs>
</svg>
