<svg width="200" height="40" viewBox="0 0 200 40" fill="none" xmlns="http://www.w3.org/2000/svg">
<g clip-path="url(#clip0_34_2512)">
<g clip-path="url(#clip1_34_2512)">
<g clip-path="url(#clip2_34_2512)">
<path d="M28.9994 17.4611C28.9994 16.3212 28.6334 15.2504 27.9347 14.3178C28.2008 13.4197 28.2674 12.2798 28.2008 10.9672C28.1676 10.4145 27.735 10 27.2027 10C26.9032 10 24.3746 10.0345 22.9106 11.3817C21.6463 11.1399 20.3154 11.1399 19.0178 11.3817C17.5872 10.0345 15.0585 10 14.7258 10C14.1934 10 13.7609 10.4145 13.7276 10.9672C13.6278 12.2798 13.7276 13.4197 13.9938 14.3178C13.2951 15.285 12.9291 16.3558 12.9291 17.4611C12.9291 19.8791 14.7258 22.0553 17.4541 23.0915C17.3543 23.2988 17.2877 23.5406 17.2212 23.7824C14.3265 23.4715 12.9624 20.7427 12.8958 20.639C12.6629 20.1209 12.0641 19.9136 11.565 20.19C11.0659 20.4318 10.8663 21.0535 11.1324 21.5717C11.199 21.7444 13.0289 25.4404 17.0548 25.8549V28.9637C17.0548 29.5509 17.4873 30 18.053 30H23.8755C24.4411 30 24.8737 29.5509 24.8737 28.9637V24.8532C24.8737 24.2314 24.7406 23.6442 24.5077 23.1261C27.2027 22.0553 28.9994 19.9136 28.9994 17.4611Z" fill="#505F79"/>
</g>
</g>
<g clip-path="url(#clip3_34_2512)">
<path d="M63.6444 13.0342C60.1556 13.0342 57.2886 15.8618 57.2886 19.379V29.31C57.2886 29.6894 57.5995 29.9997 57.9794 29.9997H61.5718C61.9518 29.9997 62.2627 29.6894 62.2627 29.31V19.6549C62.2627 18.8962 62.8844 18.2756 63.6444 18.2756C64.4043 18.2756 65.0261 18.8962 65.0261 19.6549V29.31C65.0261 29.6894 65.3369 29.9997 65.7169 29.9997H69.3093C69.6893 29.9997 70.0001 29.6894 70.0001 29.31V19.379C70.0001 15.8962 67.1677 13.0342 63.6444 13.0342Z" fill="#505F79"/>
<path d="M54.2832 16.2764H50.6908C50.3109 16.2764 50 16.5867 50 16.966V29.3108C50 29.6902 50.3109 30.0005 50.6908 30.0005H54.2832C54.6632 30.0005 54.9741 29.6902 54.9741 29.3108V16.966C54.9741 16.5867 54.6632 16.2764 54.2832 16.2764Z" fill="#505F79"/>
<path d="M52.487 10C51.1054 10 50 11.1034 50 12.4828C50 13.8621 51.1054 14.9655 52.487 14.9655C53.8687 14.9655 54.9741 13.8621 54.9741 12.4828C54.9741 11.1034 53.8687 10 52.487 10Z" fill="#505F79"/>
</g>
<g clip-path="url(#clip4_34_2512)">
<path d="M99.4643 30C104.161 30 107.083 26.5392 107.083 22.0742C107.083 20.3908 106.809 18.8708 104.898 18.4142C105.363 17.1408 106.705 13.4575 106.705 12.2775C106.705 11.2383 106.08 10.3675 104.966 10.3675C103.19 10.3675 101.598 15.5117 101.1 16.7383C100.714 15.625 98.9076 10 97.3151 10C96.0776 10 95.4968 10.8942 95.4968 12.0192C95.4968 13.3983 96.8576 16.9725 97.3509 18.3475C97.1009 18.2575 96.8301 18.1792 96.5543 18.1792C95.6226 18.1792 94.6318 19.3158 94.6318 20.2342C94.6318 20.5817 94.8268 21.07 94.9501 21.3942C93.4818 21.785 92.9168 22.7458 92.9168 24.195C92.9126 27.015 95.6359 30 99.4643 30V30ZM103.489 14.2192C103.649 13.7383 104.329 11.7075 104.966 11.7075C105.308 11.7075 105.4 12.055 105.4 12.3325C105.4 13.0783 103.864 17.2 103.525 18.1133L102.172 17.8792L103.489 14.2192ZM96.7468 11.8875V11.8867C96.7468 11.4217 97.3243 10.1017 98.5893 13.7267L99.9668 17.645C99.3459 17.5942 98.8643 17.5275 98.5584 17.7C98.1243 16.575 96.7468 13.0242 96.7468 11.8875V11.8875ZM96.6551 19.5308L96.6559 19.5317C97.8218 19.5317 99.3268 23.2267 99.3268 23.7267C99.3268 23.9258 99.1318 24.1717 98.9051 24.1717C98.0726 24.1717 95.8434 21.1675 95.8434 20.355C95.8468 20.0542 96.3484 19.5308 96.6551 19.5308V19.5308ZM95.3151 22.5892C95.7684 22.5892 97.4759 24.945 97.4759 25.445C97.4759 25.6367 97.1693 25.7692 97.0109 25.7692C96.3701 25.7692 96.1193 25.1633 94.9776 23.7617C93.7951 24.9217 95.7934 27.1558 97.2984 27.1558C98.3368 27.1558 99.0134 26.2108 98.8109 25.515C98.9584 25.515 99.1409 25.5267 99.2768 25.4917C99.3209 26.55 99.6393 27.8117 100.937 27.9017C100.937 27.8667 101.017 27.6242 101.017 27.6125C101.017 26.9325 100.595 26.3392 100.595 25.6475C100.595 24.5417 101.458 23.4717 102.334 22.8467C102.653 22.6125 103.039 22.4675 103.413 22.335C103.799 22.1908 104.209 22.0225 104.503 21.7333C104.458 21.2958 104.276 20.9092 103.83 20.9092C102.728 20.9092 99.0301 21.0658 99.0301 19.3583C99.0301 19.0967 99.0343 18.8467 99.7234 18.8467C101.009 18.8467 104.273 19.1592 105.228 19.9833C105.948 20.6125 106.196 24.405 103.994 26.8075L103.992 26.8083C102.833 28.0583 101.353 28.7067 99.6251 28.7067C97.2609 28.7067 95.3934 27.4333 94.4943 25.2575C93.8134 23.5625 94.6459 22.5892 95.3151 22.5892V22.5892ZM100.066 21.8858C100.453 22.0075 100.851 22.0433 101.249 22.1208C100.954 22.3317 100.693 22.59 100.441 22.8667C100.329 22.535 100.193 22.2108 100.066 21.8858Z" fill="#505F79"/>
</g>
<g clip-path="url(#clip5_34_2512)">
<g clip-path="url(#clip6_34_2512)">
<path d="M149.766 10.37C149.433 9.97134 148.866 9.87167 148.433 10.1707L146.5 11.4996C145.6 10.5361 144.333 10.0046 142.966 10.0046C140.266 10.0046 138.033 12.1972 138.033 14.9215C138.033 15.3202 138.066 15.6856 138.166 16.0511C135.833 15.5527 134.433 13.8584 133.9 10.8019C133.833 10.4032 133.533 10.1042 133.133 10.0046C132.766 9.90489 132.366 10.071 132.133 10.37C132.066 10.4365 126.566 18.0776 134.533 24.556C133.766 26.1839 131.466 27.5793 130.566 28.0444C130.133 28.2437 129.933 28.7088 130.033 29.1739C130.133 29.6391 130.533 29.9381 131 29.9381H132.733C142.866 29.9381 147.466 24.9215 147.566 13.6923L149.666 11.6989C150.066 11.3667 150.1 10.7687 149.766 10.37Z" fill="#505F79"/>
</g>
</g>
<path d="M188.404 13.8804L190 12.3377V12H184.472L180.532 21.9099L176.049 12H170.252V12.3377L172.117 14.6055C172.298 14.7731 172.393 15.0181 172.369 15.2648V24.1768C172.427 24.4977 172.323 24.8278 172.1 25.0611L170 27.6328V27.9663H175.954V27.6286L173.854 25.0611C173.627 24.8269 173.519 24.5027 173.565 24.1768V16.4682L178.792 27.9705H179.399L183.893 16.4682V25.6312C183.893 25.8728 183.893 25.9225 183.737 26.0808L182.12 27.6615V28H189.963V27.6623L188.405 26.1204C188.268 26.016 188.197 25.8408 188.227 25.6707V14.3301C188.197 14.1592 188.267 13.984 188.404 13.8804V13.8804Z" fill="#505F79"/>
</g>
<defs>
<clipPath id="clip0_34_2512">
<rect width="200" height="40" fill="white"/>
</clipPath>
<clipPath id="clip1_34_2512">
<rect width="18" height="20" fill="white" transform="translate(11 10)"/>
</clipPath>
<clipPath id="clip2_34_2512">
<rect width="18" height="20" fill="white" transform="translate(11 10)"/>
</clipPath>
<clipPath id="clip3_34_2512">
<rect width="20" height="20" fill="white" transform="translate(50 10)"/>
</clipPath>
<clipPath id="clip4_34_2512">
<rect width="20" height="20" fill="white" transform="translate(90 10)"/>
</clipPath>
<clipPath id="clip5_34_2512">
<rect width="20" height="20" fill="white" transform="translate(130 10)"/>
</clipPath>
<clipPath id="clip6_34_2512">
<rect width="20" height="19.9667" fill="white" transform="translate(130 9.97168)"/>
</clipPath>
</defs>
</svg>
